<?xml version="1.0" encoding="utf-8"?>
<!-- Generator: Adobe Illustrator 19.1.0, SVG Export Plug-In . SVG Version: 6.00 Build 0)  -->
<svg version="1.1" id="Layer_1" xmlns="http://www.w3.org/2000/svg" xmlns:xlink="http://www.w3.org/1999/xlink" x="0px" y="0px"
	 width="588px" height="600px" viewBox="0 0 588 600" enable-background="new 0 0 588 600" xml:space="preserve">
<circle cx="294" cy="306" r="294"/>
<path fill="#FFF5E0" d="M420.6,202.6c0,0,20.3-1.2,44.2-15.7c0,0-6.4,22.1-30.2,37.8c0,0,31.8-4.6,38.9-11c0,0-18.5,25-33.6,35.5
	c0,0,11,77.9-63.3,151.7S185,450.2,143.5,420c0,0,58.5,6.4,99.8-28.5c0,0-46.5,0-62.8-47.1c0,0,18.6,5.2,30.2-1.7
	c0,0-50-4.6-54-66.3c0,0,16.3,8.7,32.5,8.7c0,0-51.1-30.8-23.2-90.7c0,0,56.4,73.2,140.1,71.5c0,0-13.9-60.4,44.2-79
	C350.3,186.9,389.4,170.6,420.6,202.6z"/>
</svg>
