<svg xmlns="http://www.w3.org/2000/svg" width="588" height="600" viewBox="0 0 588 600"><circle cx="294" cy="306" r="294"/><path fill="#FFF5E0" d="M420.6 202.6s20.3-1.2 44.2-15.7c0 0-6.4 22.1-30.2 37.8 0 0 31.8-4.6 38.9-11 0 0-18.5 25-33.6 35.5 0 0 11 77.9-63.3 151.7s-191.6 49.3-233.1 19.1c0 0 58.5 6.4 99.8-28.5 0 0-46.5 0-62.8-47.1 0 0 18.6 5.2 30.2-1.7 0 0-50-4.6-54-66.3 0 0 16.3 8.7 32.5 8.7 0 0-51.1-30.8-23.2-90.7 0 0 56.4 73.2 140.1 71.5 0 0-13.9-60.4 44.2-79 0 0 39.1-16.3 70.3 15.7z"/></svg>